<?xml version="1.0" encoding="UTF-8"?>
<svg enable-background="new 0 0 128 128" viewBox="0 0 128 128" xmlns="http://www.w3.org/2000/svg">
<path d="m39.11 79.56c-1.1 1.03-2.21-0.2-2.21-0.2s-18.48-19.58-19.68-20.46c-1.69-1.23-5.31-3.16-8.93 0.57-1.51 1.55-3.97 5 0.6 10.56 0.99 1.2 29.78 31.54 31.46 33.18 0 0 13.3 12.94 21.35 17.81 2.23 1.35 4.74 2.78 7.67 3.78 2.92 1 6.22 1.69 9.7 1.69 3.48 0.04 7.09-0.63 10.5-1.88 3.41-1.26 6.59-3.09 9.48-5.2 0.71-0.54 1.43-1.08 2.1-1.66l1.94-1.6c1.35-1.13 2.61-2.32 3.82-3.53 2.43-2.42 4.62-5.01 6.55-7.66 1.92-2.66 3.55-5.41 4.85-8.15s2.21-5.49 2.76-8.09c0.58-2.59 0.74-5.04 0.65-7.18-0.02-2.14-0.45-3.97-0.8-5.43-0.4-1.46-0.83-2.55-1.17-3.27-0.33-0.72-0.51-1.1-0.51-1.1-0.46-1.29-0.9-2.52-1.29-3.63-1.1-3.13-2.37-6.64-3.69-10.25-0.56-1.53-0.82-2.22-0.82-2.22l0.01 0.03c-4.85-13.17-10.06-26.74-10.06-26.74-0.79-2.39-3.7-3.22-5.84-1.68-6.18 4.44-8.07 10.92-5.89 17.83l5.59 15.32c0.79 1.71-1.39 3.69-2.85 2.5-4.59-3.74-14.3-14.05-14.3-14.05-4.34-4.16-28.83-29.27-30.47-30.8-3.3-3.07-7.46-4.65-10.63-2.32-3.24 2.38-4.14 6.06-1.01 10.08 0.85 1.09 25.6 27.24 25.6 27.24 1.44 1.51-0.26 3.65-1.85 2.18 0 0-30.79-32.12-32.18-33.62-3.15-3.42-8.21-4.17-11.21-1.35-2.93 2.75-2.86 7.26 0.34 10.8 1.02 1.12 22.71 24.02 31.39 33.4 0.58 0.63 1.03 1.47 0.17 2.26-0.01 0.01-0.88 0.95-2-0.25-2.36-2.52-25.93-27.08-27.24-28.41-3.01-3.06-7.05-4.51-10.3-1.53-2.96 2.71-3.44 7.44-0.04 10.78l28.55 30.18s0.93 1.1-0.11 2.07z" fill="#FAC036"/>
<path d="m85.46 54.4 2.41 2.58s-13.79 13.31-4.39 33.75c0 0 1.22 2.59-0.38 3.02 0 0-1.4 0.78-3-3.2 0-0.01-9.49-19.42 5.36-36.15z" fill="#E48C15"/>
<path d="m63.28 10.2s5.81 0.88 11.19 6.64c5.38 5.77 7.87 13.18 7.87 13.18" fill="none" stroke="#444" stroke-linecap="round" stroke-miterlimit="10" stroke-width="4"/>
<path d="m77.44 3.5s4.87 2.45 8.63 8.5 4.67 13.05 4.67 13.05" fill="none" stroke="#444" stroke-linecap="round" stroke-miterlimit="10" stroke-width="4"/>
<path d="m35.71 110.73s-5.86 0.39-12.35-4.09-10.52-11.18-10.52-11.18" fill="none" stroke="#444" stroke-linecap="round" stroke-miterlimit="10" stroke-width="4"/>
<path d="m31.53 120.56s-5.44 0.23-11.68-3.22-10.44-9.12-10.44-9.12" fill="none" stroke="#444" stroke-linecap="round" stroke-miterlimit="10" stroke-width="4"/>
</svg>
