<svg viewBox="63.6251136 82.0662272 398.336 347.136" role="img" aria-label="Bun" xmlns="http://www.w3.org/2000/svg" style="max-height: 500px" width="398.336" height="347.136"><path fill="none" d="m0 0H512V512H0"/><path stroke-width="12" stroke="#000" fill="#fbf0df" d="m150 139c50-27 78-51 102-51s52 24 102 51a182 145 0 11-204 0z"/><path fill="#f6dece" d="m126 356a199 167 9 00298-126A176 139 0 01126 356"/><path stroke-linejoin="round" stroke-width="3" stroke="#ccbea7" fill="#ccbea7" d="m224 114q-18 36-54 46 44 0 54-46zm15-7q0 38-29 64 39-16 29-64zm11-1q19 30 9 69 24-36-9-69zm14-1q31 24 35 60 9-42-35-60z"/><path fill="#febbd0" d="m175 264a29 17 0 102 0h150a29 17 0 102 0"/><path d="m190 219a28 28 0 101 0h123a28 28 0 101 0m92-45A190 151 1 11111 359q249 122 325-93"/><path fill="#fff" d="m76 265c31-108 86-116 109-130s54-40 82-38c-30-11-57 16-101 40s-90 57-90 128m105-37a10 10 0 101 0h123a10 10 0 101 0"/><g stroke="#000"><path stroke-width="6" fill="#b71422" d="M284 292c10 0-8 35-32 37-24-2-42-37-32-37Z"/><path stroke-width="5" fill="#ff6164" d="m229 316a31 31 0 0149-3q-25 30-49 3"/></g></svg>
